<?xml version="1.0" encoding="UTF-8"?>
<svg version="1.1" xmlns="http://www.w3.org/2000/svg" width="2000" height="2000">
<path d="M0 0 C4.73513622 4.35671345 5.61726369 7.83006962 5.90955919 14.26705474 C5.91113309 15.25042306 5.91270698 16.23379137 5.91432858 17.24695873 C5.91856962 18.38915849 5.92281067 19.53135825 5.92718023 20.70817012 C5.9267941 21.9532049 5.92640797 23.19823969 5.92601013 24.48100281 C5.92914627 25.82460424 5.93272163 27.16820471 5.93669754 28.51180393 C5.9463728 32.197969 5.94994227 35.88411858 5.95254052 39.5702945 C5.95644119 43.5477962 5.96607787 47.5252843 5.97509766 51.5027771 C5.99002372 58.39277049 6.00157364 65.2827628 6.01104546 72.17276573 C6.02492348 82.13781308 6.04611101 92.10283513 6.06947399 102.06786428 C6.10737592 118.23997974 6.14234774 134.41209976 6.17407227 150.58422852 C6.17597276 151.55199838 6.17787325 152.51976824 6.17983133 153.51686446 C6.20668553 167.2626743 6.23055575 181.00848772 6.25321633 194.75430504 C6.25481363 195.72298448 6.25641094 196.69166391 6.25805664 197.68969727 C6.25965011 198.65719828 6.26124357 199.62469929 6.26288532 200.62151852 C6.28962563 216.7368486 6.32401019 232.85215151 6.36471039 248.96745235 C6.38951652 258.91156799 6.40782575 268.85565437 6.417866 278.79979608 C6.42524104 285.60760698 6.43974291 292.41537856 6.45993023 299.22316345 C6.47135195 303.15463425 6.47945382 307.08604155 6.47892189 311.01753044 C6.4784959 314.61287966 6.48714727 318.20808576 6.50317169 321.80339823 C6.50932952 323.72754657 6.50559899 325.65171861 6.50157636 327.5758726 C6.50842516 328.71024911 6.51527395 329.84462563 6.52233028 331.01337719 C6.52406653 331.99625845 6.52580278 332.97913971 6.52759165 333.99180526 C6.61546875 336.69762041 6.61546875 336.69762041 8.78125 339.44140625 C11.29986528 340.25302425 13.71132901 340.92026999 16.28125 341.50390625 C23.53079324 343.19094949 23.53079324 343.19094949 25.78125 345.44140625 C27.53840222 346.12590386 27.53840222 346.12590386 29.59375 346.69140625 C34.84326558 348.35093053 39.70509399 350.67004827 44.6796875 353.01171875 C50.99513251 356.15460026 50.99513251 356.15460026 57.78125 357.44140625 C57.77571924 355.59435876 57.77571924 355.59435876 57.77007675 353.70999718 C57.68344963 324.48137402 57.61749011 295.25277359 57.57698868 266.02405336 C57.57198584 262.42667988 57.56680855 258.82930667 57.56152344 255.23193359 C57.55994957 254.15767307 57.55994957 254.15767307 57.55834392 253.06171031 C57.5409376 241.46477313 57.50939869 229.86791524 57.47263882 218.27102511 C57.43523565 206.3719705 57.41301548 194.47295744 57.40489602 182.57384646 C57.39989954 175.8901001 57.38738409 169.20649813 57.35832977 162.52280807 C57.33121283 156.23393786 57.32279761 149.9453219 57.32881927 143.65639877 C57.32771738 141.34649779 57.31974164 139.03658846 57.3044281 136.72673798 C57.28455902 133.57559876 57.28930019 130.42542246 57.30023193 127.27426147 C57.28275488 125.89973566 57.28275488 125.89973566 57.26492476 124.49744165 C57.31708288 118.94407836 58.16702393 115.89917972 61.78125 111.44140625 C62.4 110.32765625 62.4 110.32765625 63.03125 109.19140625 C66.51934785 105.7033084 71.58323037 105.54837229 76.28125 105.12890625 C81.52733923 105.59730707 85.7942696 106.41571844 89.5859375 110.28125 C93.3901502 115.16848019 94.90635459 118.84515448 94.90594864 125.05823421 C94.90953506 126.45020501 94.90953506 126.45020501 94.91319394 127.87029642 C94.91076145 128.88633575 94.90832896 129.90237509 94.90582275 130.94920349 C94.9072329 132.03123474 94.90864305 133.11326598 94.91009593 134.22808605 C94.91375586 137.86618165 94.91040943 141.50423843 94.90722656 145.14233398 C94.90862099 147.74561595 94.91052008 150.34889769 94.91288757 152.95217896 C94.91697732 157.83679131 94.91921719 162.72139875 94.91930357 167.60601283 C94.9195063 177.20270128 94.93196573 186.79933922 94.94891357 196.39601135 C94.95151934 197.90675605 94.95411815 199.41750076 94.9567101 200.92824548 C94.96064848 203.21775118 94.96459501 205.50725685 94.96857132 207.79676248 C94.98351596 216.42741324 94.9971418 225.05806553 95.00927734 233.6887207 C95.01094769 234.87212974 95.01094769 234.87212974 95.01265177 236.07944603 C95.03023433 248.86984368 95.03309531 261.6602097 95.03142694 274.45061743 C95.03014847 287.58043667 95.04786756 300.71013805 95.08244491 313.839912 C95.10310968 321.93987359 95.10842133 330.03955309 95.0941166 338.13952971 C95.08466763 344.34403124 95.10124504 350.54821187 95.12760353 356.75265884 C95.13426617 359.30000728 95.13233991 361.84739445 95.12130547 364.39472771 C95.1075139 367.86587516 95.12423715 371.33556825 95.14874268 374.80662537 C95.1373873 375.82043398 95.12603192 376.83424259 95.11433244 377.87877268 C95.19304885 383.65422024 95.19304885 383.65422024 98.20823288 388.51159763 C99.05732853 389.14843448 99.90642418 389.78527132 100.78125 390.44140625 C101.37550781 390.94027344 101.96976563 391.43914062 102.58203125 391.953125 C103.08089844 392.34113281 103.57976563 392.72914063 104.09375 393.12890625 C104.980625 393.89203125 105.8675 394.65515625 106.78125 395.44140625 C106.78125 396.10140625 106.78125 396.76140625 106.78125 397.44140625 C107.77125 397.77140625 108.76125 398.10140625 109.78125 398.44140625 C109.78125 399.10140625 109.78125 399.76140625 109.78125 400.44140625 C110.77125 400.77140625 111.76125 401.10140625 112.78125 401.44140625 C114.5 403.4375 114.5 403.4375 116.28125 405.87890625 C118.3942426 408.76573605 119.76601316 410.43124836 122.78125 412.44140625 C124.96646817 412.7439545 124.96646817 412.7439545 127.4211731 412.70032597 C128.37974653 412.70717476 129.33831997 412.71402355 130.32594109 412.72107989 C131.90894351 412.7171546 131.90894351 412.7171546 133.52392578 412.71315002 C135.20293567 412.72078028 135.20293567 412.72078028 136.91586494 412.72856468 C140.68613187 412.74328898 144.45626878 412.74376035 148.2265625 412.74438477 C150.92161735 412.75204171 153.61665859 412.76049189 156.31170654 412.7699585 C162.1246118 412.78884089 167.937496 412.80054 173.75042725 412.80749702 C182.15825677 412.81765681 190.56602256 412.83971316 198.97381902 412.86488294 C212.61860035 412.90549849 226.26338777 412.93795278 239.90820312 412.96459961 C241.13362064 412.96699556 241.13362064 412.96699556 242.38379407 412.96943992 C243.20177118 412.97103882 244.01974829 412.97263772 244.86251259 412.97428507 C256.45977917 412.99697302 268.05703945 413.02160481 279.65429688 413.04858398 C280.87822549 413.0514282 280.87822549 413.0514282 282.12687993 413.05432988 C295.7199178 413.0860813 309.31294348 413.12183008 322.90596581 413.15962547 C331.29521037 413.1826918 339.6844466 413.20163647 348.07371187 413.21529221 C353.81908631 413.22480425 359.56444677 413.23763567 365.30980825 413.25310106 C368.62759067 413.26188563 371.94535244 413.2684305 375.26314545 413.27174187 C378.8549826 413.27553268 382.4467541 413.28532892 386.03857422 413.29664612 C387.09390917 413.29625999 388.14924412 413.29587385 389.23655891 413.29547602 C390.19513235 413.29971707 391.15370579 413.30395811 392.1413269 413.30832767 C393.38569928 413.31068852 393.38569928 413.31068852 394.65521049 413.31309706 C396.78125 413.44140625 396.78125 413.44140625 399.78125 414.44140625 C399.78125 415.10140625 399.78125 415.76140625 399.78125 416.44140625 C400.379375 416.54453125 400.9775 416.64765625 401.59375 416.75390625 C405.52085234 417.98813841 406.56159503 420.02650242 408.46875 423.62890625 C410.65528089 429.16501636 410.60496905 434.14439514 408.28125 439.56640625 C405.66441788 444.06459115 402.36153009 446.98211023 397.78125 449.44140625 C394.31491044 450.25277309 390.99078762 450.25230933 387.44213867 450.20089722 C386.42666584 450.21010732 385.41119301 450.21931742 384.36494827 450.22880661 C380.97583911 450.25232616 377.5883363 450.23330151 374.19921875 450.21435547 C371.76456219 450.22252843 369.32991324 450.23333207 366.89527893 450.24656677 C361.66075639 450.26911632 356.42655919 450.27342671 351.1920166 450.26098251 C343.62389409 450.24302242 336.05612015 450.25821011 328.48802495 450.28136183 C316.20797231 450.31803351 303.92804909 450.32807875 291.64794922 450.32128906 C279.72244875 450.31475266 267.79706381 450.3208124 255.87158203 450.34375 C255.13589591 450.34516065 254.40020979 450.34657131 253.64223015 450.34802471 C249.9513292 450.3551794 246.26042879 450.36258106 242.56952858 450.3701055 C211.97342094 450.4321609 181.37742408 450.45052095 150.78125 450.44140625 C151.41904242 454.6012182 152.27407062 457.9511707 154.09375 461.75390625 C154.76664063 463.18476562 154.76664063 463.18476562 155.453125 464.64453125 C155.89140625 465.5675 156.3296875 466.49046875 156.78125 467.44140625 C160.64825171 475.90397521 164.27950392 484.42009781 166.97265625 493.3359375 C168.00361483 496.02041418 169.0536708 498.12476846 170.78125 500.44140625 C173.33667881 501.18860267 173.33667881 501.18860267 176.31301403 501.06388283 C177.47054092 501.07547137 178.6280678 501.08705991 179.82067126 501.09899962 C181.09827061 501.08628 182.37586996 501.07356038 183.69218445 501.06045532 C185.05851399 501.06461616 186.42483832 501.07097899 187.79114848 501.07936132 C191.55447894 501.09609705 195.31715272 501.0816444 199.08044708 501.06230021 C203.13582814 501.04690368 207.19112237 501.06031229 211.24650574 501.07038879 C218.27739285 501.08402319 225.30808531 501.07968169 232.33896446 501.06355667 C242.51318966 501.04051129 252.68721938 501.04778785 262.86145101 501.06308787 C279.37892342 501.08737894 295.89633342 501.09155807 312.41381836 501.08105469 C313.89745203 501.08011895 313.89745203 501.08011895 315.41105811 501.07916431 C317.41281594 501.07789303 319.41457378 501.07661879 321.41633161 501.0753416 C322.40870475 501.07470922 323.40107789 501.07407684 324.42352295 501.07342529 C325.91332864 501.07246807 325.91332864 501.07246807 327.43323142 501.07149152 C338.45442933 501.0646912 349.47562634 501.06269465 360.49682617 501.0625 C361.97638288 501.06246575 361.97638288 501.06246575 363.48582961 501.06243081 C379.93443543 501.06250006 396.38301754 501.07453421 412.83161193 501.09345949 C422.97900641 501.10442336 433.12627669 501.10359266 443.27366511 501.08751975 C450.22917535 501.0770501 457.18463566 501.07682653 464.14014926 501.0846379 C468.15327362 501.08872414 472.16623909 501.08779892 476.17934418 501.07370567 C479.85528887 501.06085283 483.53096516 501.06180804 487.20691106 501.07357816 C489.16232359 501.07622553 491.11773897 501.06405019 493.07311171 501.05129969 C500.37801034 501.0910706 506.85881896 501.31406258 512.8046875 506.0546875 C516.87414896 511.17091794 519.10951335 515.23648266 518.59375 521.94140625 C518.04618417 525.88788678 516.8178597 528.98802458 514.78125 532.44140625 C514.12125 532.44140625 513.46125 532.44140625 512.78125 532.44140625 C512.45125 533.43140625 512.12125 534.42140625 511.78125 535.44140625 C509.28125 536.56640625 509.28125 536.56640625 506.78125 537.44140625 C506.45125 537.77140625 506.12125 538.10140625 505.78125 538.44140625 C504.02991133 538.54380922 502.27441097 538.57540392 500.52008724 538.58007145 C499.37205905 538.58554589 498.22403086 538.59102034 497.04121393 538.59666067 C495.76400478 538.59763878 494.48679563 538.59861689 493.17088318 538.59962463 C491.81295931 538.60418632 490.45503684 538.60918575 489.09711605 538.6145882 C485.34826071 538.62822357 481.59941447 538.6356032 477.85054076 538.64201486 C473.81438155 538.64999521 469.77824145 538.66370106 465.74209595 538.67672729 C458.7434238 538.69852374 451.74474975 538.71665659 444.74606133 538.73233223 C434.62701375 538.75500209 424.50798731 538.78314886 414.38895763 538.81265151 C397.97326297 538.86036287 381.55755968 538.90361741 365.1418457 538.9440918 C349.19131804 538.98342872 333.24079805 539.02485059 317.2902832 539.0690918 C315.81659497 539.07317821 315.81659497 539.07317821 314.31313526 539.07734717 C309.38464635 539.09102635 304.45615757 539.10474668 299.52766883 539.11848748 C258.61221166 539.23250791 217.69673784 539.33903138 176.78125 539.44140625 C177.11125 555.61140625 177.44125 571.78140625 177.78125 588.44140625 C181.86016602 588.44505188 185.93908203 588.44869751 190.14160156 588.45245361 C227.54322157 588.48772784 264.94477074 588.54275267 302.34632975 588.6193272 C307.24797604 588.6293447 312.14962267 588.63918882 317.05126953 588.64892578 C318.02710208 588.65086715 319.00293463 588.65280853 320.00833786 588.65480873 C335.81035386 588.68583262 351.61235533 588.70281047 367.41439605 588.71460047 C383.62789406 588.72701001 399.84131582 588.75450697 416.0547657 588.79601932 C426.05991775 588.82116034 436.06494335 588.83452309 446.07012743 588.83283582 C452.9303982 588.83280608 459.79054014 588.847427 466.65076071 588.87357053 C470.6092032 588.88822301 474.56738148 588.89641392 478.52584648 588.88720894 C482.15206354 588.87891928 485.77774986 588.88908371 489.40388823 588.91374287 C491.33257734 588.92211 493.26132096 588.91089096 495.189991 588.8989079 C502.1835442 588.96822341 506.86485336 589.60615131 512.78125 593.44140625 C516.94102594 598.47692449 519.105997 603.39265122 518.65625 609.94140625 C518.03912242 614.26129929 516.56136119 617.02584107 513.78125 620.44140625 C513.183125 621.18390625 512.585 621.92640625 511.96875 622.69140625 C505.61377102 627.77538943 497.04131335 626.71859823 489.35565186 626.68623352 C487.98231366 626.68765703 486.60897614 626.68997104 485.23564076 626.69309586 C481.47188771 626.69918277 477.70824055 626.69296506 473.9444952 626.68478525 C469.88180586 626.67818616 465.81912978 626.68320725 461.75643921 626.68701172 C454.72021306 626.69222997 447.68401447 626.69074469 440.647789 626.68523598 C429.53154754 626.67702016 418.41536545 626.68825244 407.2991333 626.70243835 C403.49554076 626.70703908 399.69194805 626.71148946 395.88835526 626.71587658 C394.46269571 626.71752379 394.46269571 626.71752379 393.00823496 626.71920428 C382.1962475 626.73137178 371.38425814 626.73892912 360.57226562 626.74487305 C359.58412696 626.74542111 358.5959883 626.74596917 357.57790604 626.74653383 C341.5433866 626.75500407 325.50888392 626.75164908 309.47436437 626.7457187 C293.01546079 626.74010832 276.55664193 626.75359778 260.09776425 626.78327149 C249.94237387 626.80084181 239.78722796 626.80241195 229.63183859 626.78362634 C222.68009369 626.77205241 215.72851437 626.77841572 208.77679107 626.79909555 C204.76214464 626.81045482 200.74792433 626.81350446 196.73329544 626.79491997 C193.0619012 626.77808074 189.39129046 626.7840004 185.71994534 626.80841853 C183.75506296 626.81542775 181.79014112 626.79765326 179.82533336 626.77915078 C178.66718977 626.79135602 177.50904619 626.80356126 176.31580734 626.81613636 C175.31220381 626.81619138 174.30860029 626.81624639 173.27458453 626.81630307 C170.55405004 627.21949273 170.55405004 627.21949273 168.99027181 629.83790749 C167.89675814 632.19267185 166.98252552 634.46240914 166.21875 636.94140625 C165.21006239 640.17832467 164.06482719 643.30269674 162.78125 646.44140625 C162.45125 647.26640625 162.12125 648.09140625 161.78125 648.94140625 C160.78125 651.44140625 159.78125 653.94140625 158.78125 656.44140625 C158.47316406 657.24578125 158.16507813 658.05015625 157.84765625 658.87890625 C156.18370865 662.87725653 154.12307688 666.66636402 152.12109375 670.50390625 C150.88080403 673.22314203 150.30565722 675.52318002 149.78125 678.44140625 C151.68102899 678.43587549 151.68102899 678.43587549 153.61918736 678.430233 C183.68704204 678.34359263 213.75486453 678.27763973 243.82281346 678.23714493 C247.52404708 678.23214213 251.22528044 678.22696484 254.92651367 678.22167969 C255.66335935 678.22063045 256.40020502 678.2195812 257.15937936 678.21850017 C269.08866594 678.20109721 281.01787538 678.16956015 292.9471162 678.13279507 C305.18856953 678.09538255 317.42998246 678.07316975 329.67149061 678.06505227 C337.22455834 678.05956512 344.77740802 678.04223759 352.33040863 678.00974038 C358.12308595 677.98608738 363.91562371 677.9835872 369.70833969 677.98897552 C372.08393509 677.98787431 374.45953868 677.97990746 376.83508492 677.96458435 C380.07782518 677.94469201 383.31963145 677.94946508 386.56239319 677.96038818 C387.9734047 677.94291113 387.9734047 677.94291113 389.41292149 677.92508101 C396.25484579 677.98740306 400.0399963 679.63546598 405.53125 683.75390625 C408.84756667 688.23093376 410.38456215 692.80703612 410.125 698.3984375 C409.03997447 704.84694148 405.5252358 709.16984525 400.66015625 713.3125 C397.05386588 715.47927322 393.07166658 715.56593064 388.94881248 715.5465517 C387.99815733 715.54462576 387.04750218 715.54269982 386.0680393 715.54071552 C385.03176889 715.53350819 383.99549847 715.52630086 382.92782593 715.51887512 C381.82058879 715.51534631 380.71335164 715.5118175 379.57256186 715.50818175 C377.14408301 715.49984587 374.71561136 715.48917382 372.28715134 715.47648811 C368.33526328 715.45585946 364.383376 715.44088291 360.43145752 715.42788696 C356.17439541 715.41366037 351.91733639 715.3991477 347.66028285 715.38252699 C337.10193864 715.34178857 326.54367708 715.32117706 315.98526001 715.31266785 C315.22120013 715.31202189 314.45714025 715.31137594 313.66992705 715.31071041 C306.57553595 715.30481662 299.48114418 715.30016759 292.38675189 715.29599154 C287.52362165 715.29303341 282.66049243 715.28931918 277.79736328 715.28491211 C276.98962899 715.2841895 276.18189469 715.28346689 275.3496836 715.28272238 C262.26898352 715.26982221 249.18870923 715.21749992 236.10818224 715.15151361 C222.66862796 715.08470478 209.22954245 715.0636527 195.78983557 715.08398169 C187.5057573 715.09501217 179.22338925 715.07017672 170.93960376 714.99885758 C165.25741762 714.95328968 159.57628402 714.9520178 153.89401595 714.98507271 C150.61849099 715.00281162 147.34664377 714.99481584 144.07133102 714.94702339 C130.25956174 714.11937885 130.25956174 714.11937885 117.90590286 719.03333092 C115.04796533 721.85473147 112.95539427 725.07090844 110.78125 728.44140625 C108.36166639 731.11246882 106.24486417 733.16517645 103.14749146 735.01064777 C99.17431538 737.55101419 96.36187639 740.0533556 95.21114349 744.78618979 C94.23954576 752.38344925 94.48990429 760.05210735 94.5859375 767.6940918 C94.58216825 770.29649826 94.57397339 772.89890152 94.56169128 775.50128174 C94.54209083 781.09675245 94.55864267 786.69116472 94.59988403 792.28650475 C94.65932653 800.38265622 94.66138571 808.47804309 94.64934742 816.57436702 C94.63116236 829.72009575 94.65600372 842.86536682 94.70947266 856.01098633 C94.76121556 868.7616496 94.7976849 881.51217321 94.81005859 894.26293945 C94.81121516 895.4416348 94.81121516 895.4416348 94.8123951 896.64414217 C94.8204292 905.2241674 94.82477935 913.80419268 94.82745361 922.38422108 C94.82822252 924.66040901 94.82900673 926.93659693 94.8298111 929.21278485 C94.83031331 930.71325774 94.8307536 932.21373065 94.83113098 933.71420357 C94.8338015 943.25454953 94.85254961 952.79467798 94.88860226 962.33495557 C94.90896641 967.80029727 94.92018199 973.26565012 94.930933 978.73101807 C94.9378426 981.26829555 94.94827322 983.80556622 94.96245384 986.34281349 C94.98150027 989.80192524 94.98838896 993.26085957 94.99243164 996.72001648 C95.00556554 998.23124424 95.00556554 998.23124424 95.01896477 999.77300185 C95.00909238 1006.83986244 94.04857814 1012.59358621 89.78125 1018.44140625 C85.49547231 1021.94795163 80.21771968 1023.10212004 74.78125 1023.44140625 C69.14679963 1022.80432449 65.02113327 1021.21568435 61.21875 1016.94140625 C58.57336094 1013.52413313 57.6559579 1010.62636028 57.65820217 1006.32409382 C57.65621112 1005.48210573 57.65422007 1004.64011765 57.65216869 1003.77261478 C57.65508153 1002.84752571 57.65799437 1001.92243664 57.66099548 1000.96931458 C57.66014106 999.98669873 57.65928663 999.00408289 57.65840632 997.99169081 C57.6567533 994.68430228 57.66227002 991.37696397 57.66772461 988.06958008 C57.66800655 985.70463563 57.66784862 983.3396911 57.6672821 980.9747467 C57.66702429 975.20994526 57.67136894 969.44516039 57.67771976 963.68036274 C57.68486196 956.97338008 57.68636438 950.2663998 57.68750793 943.55941387 C57.68969734 931.59828087 57.69635442 919.63715469 57.70581055 907.67602539 C57.71498754 896.05590855 57.72206697 884.43579356 57.72631836 872.81567383 C57.72658108 872.09958306 57.72684381 871.38349229 57.72711449 870.6457018 C57.72841951 867.05333662 57.72968323 863.46097142 57.73092639 859.86860621 C57.74129554 830.05953478 57.7589851 800.25047131 57.78125 770.44140625 C56.36344989 770.89753345 54.94705657 771.35803453 53.53125 771.8203125 C52.74234375 772.07627197 51.9534375 772.33223145 51.140625 772.59594727 C48.23153135 773.63839256 45.55750579 774.97531509 42.8203125 776.3984375 C37.3127091 779.21554499 31.68653363 781.59600512 25.78125 783.44140625 C15.56591642 786.14149261 15.56591642 786.14149261 6.78125 791.44140625 C6.68069082 793.17157113 6.65093595 794.9058745 6.64817142 796.63895702 C6.64393038 797.77283484 6.63968933 798.90671265 6.63531977 800.0749504 C6.63589897 801.96711577 6.63589897 801.96711577 6.63648987 803.89750671 C6.63335871 805.23877961 6.62978451 806.58005153 6.62580246 807.92132217 C6.61606786 811.62439369 6.61254803 815.32744978 6.60995948 819.03053224 C6.60607642 823.01772263 6.59643848 827.00489924 6.58740234 830.99208069 C6.5724399 837.90725615 6.56090596 844.82243051 6.55145454 851.73761559 C6.53760204 861.74246669 6.51641693 871.74729236 6.49302601 881.75212524 C6.45507537 897.99123829 6.42011891 914.23035596 6.38842773 930.46948242 C6.38652724 931.44228347 6.38462675 932.41508452 6.38266867 933.4173644 C6.35584657 947.21763478 6.33197204 961.01790872 6.30928367 974.81818644 C6.30768637 975.78947154 6.30608906 976.76075663 6.30444336 977.76147461 C6.30284989 978.73158003 6.30125643 979.70168544 6.29961468 980.70118799 C6.27285479 996.87174474 6.23845706 1013.04227452 6.19778961 1029.21280223 C6.17299931 1039.19266075 6.15468114 1049.17249022 6.144634 1059.15237466 C6.13724718 1065.99202573 6.12272721 1072.83163785 6.10256977 1079.67126312 C6.09116963 1083.61927284 6.08304481 1087.56721969 6.08357811 1091.51524734 C6.08400562 1095.12945661 6.07529957 1098.74352441 6.05932831 1102.35769735 C6.05320215 1104.28483693 6.05689013 1106.21199998 6.06092364 1108.13914508 C6.05407484 1109.28606163 6.04722605 1110.43297818 6.04016972 1111.61464977 C6.03756534 1113.09588511 6.03756534 1113.09588511 6.03490835 1114.6070444 C5.66014989 1118.794571 4.78516256 1122.28014757 2.01171875 1125.48828125 C-3.7116394 1130.25957026 -7.54776177 1132.88610122 -15.21875 1132.44140625 C-18.2890625 1131.4453125 -18.2890625 1131.4453125 -21.34375 1130.00390625 C-22.35695313 1129.55144531 -23.37015625 1129.09898438 -24.4140625 1128.6328125 C-29.03636142 1125.02123911 -30.85769781 1120.3012038 -31.58802748 1114.51645839 C-31.73811806 1111.08798738 -31.759651 1107.6803646 -31.73773193 1104.24864197 C-31.74523319 1102.93829894 -31.75273444 1101.62795591 -31.760463 1100.27790552 C-31.78063966 1096.6610164 -31.77619149 1093.04452138 -31.76755548 1089.42760193 C-31.76259704 1085.51970366 -31.78071237 1081.61190266 -31.79597473 1077.70404053 C-31.81925728 1070.94011619 -31.82803659 1064.17629897 -31.82686615 1057.41233635 C-31.82519503 1047.63290045 -31.84555076 1037.85360711 -31.87122145 1028.07420928 C-31.91227849 1012.20646222 -31.93560928 996.33874086 -31.94775391 980.47094727 C-31.95958684 965.06011486 -31.97979216 949.64933081 -32.01123047 934.23852539 C-32.01316657 933.28803831 -32.01510267 932.33755123 -32.01709744 931.35826152 C-32.0268622 926.58977821 -32.03679128 921.82129526 -32.04680204 917.05281246 C-32.12959225 877.51569724 -32.1825023 837.97858952 -32.21875 798.44140625 C-48.38875 798.11140625 -64.55875 797.78140625 -81.21875 797.44140625 C-81.22421844 803.46915062 -81.22421844 803.46915062 -81.22979736 809.6186676 C-81.26506729 846.46136969 -81.32008681 883.30399983 -81.39667095 920.14663998 C-81.40668852 924.97446866 -81.41653263 929.80229769 -81.42626953 934.63012695 C-81.4282109 935.59126874 -81.43015228 936.55241052 -81.43215248 937.54267781 C-81.46318125 953.10934111 -81.48015558 968.67598966 -81.49194422 984.24267805 C-81.50435124 1000.21321922 -81.53184248 1016.18368294 -81.57336307 1032.15417522 C-81.59851134 1042.01038975 -81.61186631 1051.86647587 -81.61017957 1061.72272294 C-81.61014984 1068.47973239 -81.62476001 1075.23661094 -81.65091428 1081.99356938 C-81.66557515 1085.89315653 -81.67375052 1089.79247522 -81.66455269 1093.69208527 C-81.65627178 1097.26335753 -81.6664033 1100.83409018 -81.69108662 1104.40528237 C-81.6994667 1106.30687426 -81.68822492 1108.20852148 -81.67625165 1110.11009413 C-81.74334579 1116.76577313 -82.14518439 1121.07658232 -86.21875 1126.44140625 C-91.0908016 1130.36023036 -95.8905201 1132.83138731 -102.21875 1132.25390625 C-107.26604839 1131.43359963 -111.99143919 1129.56519229 -115.21875 1125.44140625 C-115.21875 1124.78140625 -115.21875 1124.12140625 -115.21875 1123.44140625 C-115.87875 1123.44140625 -116.53875 1123.44140625 -117.21875 1123.44140625 C-119.68744707 1116.73541967 -119.50813694 1110.23180404 -119.4972229 1103.1474762 C-119.50222963 1101.78849692 -119.50810653 1100.42952061 -119.51477563 1099.07054847 C-119.53054401 1095.34663235 -119.53400457 1091.62279174 -119.53542423 1087.89884627 C-119.53912381 1083.87914175 -119.55428208 1079.85947838 -119.56803894 1075.83979797 C-119.59029807 1068.87888077 -119.60531945 1061.91797823 -119.61540604 1054.95703316 C-119.62999997 1044.89271663 -119.65553882 1034.8284512 -119.68373732 1024.76416468 C-119.72919231 1008.43499377 -119.76581247 992.10581549 -119.796875 975.77661133 C-119.82706583 959.91559557 -119.86141857 944.05459783 -119.90136719 928.19360352 C-119.90505951 926.72676029 -119.90505951 926.72676029 -119.90882643 925.23028386 C-119.92120113 920.32440276 -119.93365764 915.41852187 -119.94615483 910.51264107 C-120.04970327 869.82225452 -120.13891292 829.13184579 -120.21875 788.44140625 C-120.83694107 788.30527924 -121.45513214 788.16915222 -122.09205627 788.02890015 C-122.90287155 787.84969025 -123.71368683 787.67048035 -124.54907227 787.48583984 C-125.35288834 787.30846283 -126.15670441 787.13108582 -126.98487854 786.94833374 C-136.57430566 784.77222634 -145.785201 781.50153565 -154.21875 776.44140625 C-159.54203103 774.04547942 -164.44099556 772.34910474 -170.21875 771.44140625 C-170.22233253 773.28983643 -170.22233253 773.28983643 -170.22598743 775.17560863 C-170.28333368 804.42040256 -170.35605451 833.66511983 -170.44773628 862.90982447 C-170.45900459 866.50848615 -170.47014302 870.10714822 -170.48120117 873.70581055 C-170.48340486 874.42224654 -170.48560854 875.13868253 -170.487879 875.87682871 C-170.52326197 887.48085457 -170.54812045 899.08488036 -170.56909702 910.68894019 C-170.59085113 922.59368819 -170.6238978 934.49836613 -170.66745156 946.40305454 C-170.69159365 953.09061892 -170.71012747 959.77812667 -170.71636391 966.46573448 C-170.72239519 972.75708757 -170.74232421 979.04824181 -170.77302551 985.33952141 C-170.78183716 987.65142691 -170.78552189 989.96335837 -170.78375816 992.27528 C-170.78211273 995.4266869 -170.79874271 998.57748231 -170.82002258 1001.72880554 C-170.81275122 1003.10770062 -170.81275122 1003.10770062 -170.80533296 1004.51445216 C-170.85940236 1009.35143213 -171.14459369 1012.48183766 -174.21875 1016.44140625 C-175.20875 1017.77171875 -175.20875 1017.77171875 -176.21875 1019.12890625 C-180.5760854 1022.48768562 -184.75848234 1023.31070835 -190.21875 1023.44140625 C-193.70927243 1022.78229164 -196.9278303 1021.76919598 -200.21875 1020.44140625 C-200.21875 1019.78140625 -200.21875 1019.12140625 -200.21875 1018.44140625 C-200.816875 1018.23515625 -201.415 1018.02890625 -202.03125 1017.81640625 C-205.2229709 1015.81018169 -205.85595677 1013.97161201 -207.21875 1010.44140625 C-207.64612334 1006.83135008 -207.61329301 1003.24889391 -207.58383179 999.61717224 C-207.58695078 998.52526504 -207.59006978 997.43335784 -207.5932833 996.30836254 C-207.60022881 992.64871429 -207.5858922 988.98945705 -207.57177734 985.32983398 C-207.57260809 982.70655237 -207.57482409 980.08327087 -207.57832336 977.45999146 C-207.58406481 971.81080951 -207.5794472 966.16171344 -207.56830978 960.51254082 C-207.55264842 952.33937418 -207.55822259 944.16632304 -207.56992622 935.99315465 C-207.5888136 922.72500916 -207.59803834 909.4568794 -207.59765625 896.1887207 C-207.59763881 895.39493112 -207.59762137 894.60114154 -207.5976034 893.78329773 C-207.59715104 884.9242139 -207.59382005 876.06513571 -207.58673096 867.20605469 C-207.58609857 866.40926618 -207.58546619 865.61247767 -207.58481465 864.79154405 C-207.58418208 863.99553756 -207.58354952 863.19953107 -207.58289778 862.37940317 C-207.58162801 860.77417569 -207.5803626 859.1689482 -207.57910156 857.5637207 C-207.57847337 856.77059624 -207.57784518 855.97747178 -207.57719795 855.16031324 C-207.56724756 841.94004621 -207.57655929 828.71987293 -207.60128558 815.49962574 C-207.6157275 807.34576262 -207.61363097 799.19222913 -207.59032358 791.03838492 C-207.57384995 784.7942821 -207.58299315 778.55046088 -207.60169029 772.30636978 C-207.60515202 769.74288304 -207.60000236 767.17936842 -207.58572197 764.61591911 C-207.56746435 761.12301703 -207.57971473 757.6315182 -207.59970093 754.13865662 C-207.58698131 753.11843035 -207.57426169 752.09820408 -207.56115663 751.04706186 C-207.62771296 745.25584688 -207.62771296 745.25584688 -210.63121986 740.3809824 C-211.48510481 739.74092227 -212.33898975 739.10086214 -213.21875 738.44140625 C-214.21841797 737.58482422 -214.21841797 737.58482422 -215.23828125 736.7109375 C-216.44526065 735.73010238 -217.65362215 734.75096585 -218.86328125 733.7734375 C-219.31058594 733.33386719 -219.75789063 732.89429688 -220.21875 732.44140625 C-220.21875 731.78140625 -220.21875 731.12140625 -220.21875 730.44140625 C-220.87875 730.44140625 -221.53875 730.44140625 -222.21875 730.44140625 C-223.45043205 729.00999198 -224.67622998 727.57257435 -225.85546875 726.09765625 C-227.81720975 723.71433767 -230.00886494 721.59313644 -232.21875 719.44140625 C-232.66791063 718.90647379 -233.11707125 718.37154134 -233.57984281 717.82039881 C-235.74902313 715.99522925 -237.00328586 716.06595821 -239.81626511 716.06502533 C-240.76540496 716.05741889 -241.71454481 716.04981244 -242.69244647 716.0419755 C-243.73727104 716.04886943 -244.78209562 716.05576337 -245.85858154 716.06286621 C-246.9669321 716.05833608 -248.07528265 716.05380595 -249.21721959 716.04913855 C-252.95059472 716.03746276 -256.68361512 716.04718271 -260.41699219 716.05664062 C-263.08585826 716.05253785 -265.75469578 716.04723362 -268.42355347 716.0403595 C-274.18081531 716.02777908 -279.93800205 716.02582484 -285.69527435 716.03071594 C-294.02698418 716.03751696 -302.35858054 716.02501866 -310.6902701 716.00720876 C-324.21733655 715.97854097 -337.74439077 715.96104159 -351.27148438 715.95263672 C-352.08139892 715.95212954 -352.89131346 715.95162236 -353.72577086 715.95109981 C-359.47343042 715.9475733 -365.22109017 715.94444424 -370.96875 715.94140625 C-377.52734393 715.93793852 -384.08593769 715.93428902 -390.64453125 715.93017578 C-391.85610646 715.92942186 -391.85610646 715.92942186 -393.09215793 715.9286527 C-406.56318795 715.91990663 -420.03417597 715.89946467 -433.50517774 715.87069368 C-441.81460468 715.85351539 -450.12391275 715.84692812 -458.43335512 715.85399973 C-464.12925525 715.85818092 -469.82508047 715.85182329 -475.52096316 715.837201 C-478.80690657 715.82914704 -482.09262617 715.82767082 -485.37857437 715.83602333 C-488.94288829 715.84438801 -492.5067003 715.83443292 -496.07098389 715.81994629 C-497.10688557 715.82684022 -498.14278726 715.83373416 -499.21007991 715.840837 C-506.35552837 715.78419558 -510.8426397 714.51311029 -516.96875 710.75390625 C-520.87663937 706.7374644 -522.34214314 701.99863595 -522.59375 696.44140625 C-522.3994465 692.16672917 -521.4748164 688.11304372 -519.21875 684.44140625 C-516.59375 683.12890625 -516.59375 683.12890625 -514.21875 682.44140625 C-513.88875 681.45140625 -513.55875 680.46140625 -513.21875 679.44140625 C-510.45724108 678.39358416 -507.81534391 678.31686623 -504.88468552 678.31835842 C-504.01980601 678.31636737 -503.15492651 678.31437632 -502.26383853 678.31232494 C-501.31831661 678.31523778 -500.3727947 678.31815062 -499.39862061 678.32115173 C-497.88666324 678.3198701 -497.88666324 678.3198701 -496.34416127 678.31856257 C-492.95696199 678.3169117 -489.56981193 678.32242277 -486.18261719 678.32788086 C-483.75841269 678.32816284 -481.33420811 678.32800478 -478.91000366 678.32743835 C-473.68587516 678.32721042 -468.46175784 678.33005213 -463.23763275 678.33567619 C-455.68441992 678.34380236 -448.13121313 678.34640756 -440.5779964 678.34766418 C-428.32347855 678.34985294 -416.06896736 678.35650827 -403.81445312 678.3659668 C-391.91015659 678.37514546 -380.00586186 678.38222407 -368.1015625 678.38647461 C-367.00093747 678.38686869 -367.00093747 678.38686869 -365.8780776 678.38727074 C-362.19707862 678.38857578 -358.51607962 678.38983948 -354.83508062 678.39108264 C-324.29629898 678.40144978 -293.75752542 678.41913765 -263.21875 678.44140625 C-263.13166668 674.68950218 -263.3327176 672.69752688 -265.34375 669.50390625 C-270.5510514 660.67671442 -274.49111809 650.78438495 -277.71875 641.06640625 C-277.9765625 640.29425781 -278.234375 639.52210938 -278.5 638.7265625 C-279.14889149 636.66351075 -279.69341628 634.60086335 -280.21875 632.50390625 C-280.95851842 629.16800335 -280.95851842 629.16800335 -284.21875 627.44140625 C-286.79869485 627.13832441 -286.79869485 627.13832441 -289.75330734 627.18527985 C-290.91145093 627.17904775 -292.06959451 627.17281566 -293.26283336 627.16639471 C-294.54111483 627.16969368 -295.8193963 627.17299266 -297.13641357 627.1763916 C-298.50345012 627.17282263 -299.8704846 627.16837279 -301.23751569 627.16311502 C-305.00256994 627.1511611 -308.76753742 627.15163702 -312.53260612 627.15405011 C-316.58999968 627.15446865 -320.64736297 627.14338038 -324.70474243 627.1335907 C-331.73883972 627.11811669 -338.7729169 627.10972194 -345.80702972 627.10588074 C-355.98486636 627.10013876 -366.16264888 627.08156052 -376.34046164 627.0594402 C-392.86238226 627.02369689 -409.38430593 626.99539471 -425.90625 626.97314453 C-427.39027714 626.97114204 -427.39027714 626.97114204 -428.90428463 626.9690991 C-435.92577283 626.95967285 -442.94726137 626.95051064 -449.96875 626.94140625 C-457.98242213 626.93101262 -465.99609407 626.92049456 -474.00976562 626.90966797 C-474.99670216 626.90833723 -475.9836387 626.90700648 -477.00048241 626.90563542 C-493.45473731 626.8832076 -509.90896918 626.85301177 -526.36320043 626.81727552 C-536.51516548 626.79560549 -546.66709466 626.78098848 -556.81908157 626.77543676 C-563.77645561 626.77119023 -570.73379551 626.75995414 -577.69115064 626.74321282 C-581.70613436 626.73380574 -585.72105425 626.72769436 -589.73604965 626.73027611 C-593.41252351 626.7325895 -597.08886331 626.72575556 -600.76530996 626.71169728 C-602.72343165 626.70660231 -604.68157132 626.71132877 -606.63969302 626.71641779 C-620.60187953 626.64195641 -620.60187953 626.64195641 -625.96875 622.12890625 C-630.58137161 616.61938599 -631.94747177 612.75460325 -631.76171875 605.58984375 C-630.83657769 600.22535672 -628.18060258 596.12376306 -624.21875 592.44140625 C-617.66932768 588.69785321 -611.36680902 589.02896313 -603.96278381 589.0806427 C-602.60793087 589.07933347 -601.25307866 589.07670488 -599.89823049 589.0728752 C-596.18563338 589.06618133 -592.47329693 589.07814761 -588.76073301 589.09320939 C-584.75332055 589.10618142 -580.74592243 589.10177946 -576.73849487 589.09950256 C-569.79881885 589.09793057 -562.85922754 589.10733207 -555.91957283 589.12421608 C-545.88604761 589.14861149 -535.85256329 589.15641191 -525.81901162 589.16018005 C-509.53971826 589.16674368 -493.26047003 589.18670246 -476.98120117 589.21508789 C-461.16870347 589.24263074 -445.35621803 589.26386322 -429.54370117 589.27661133 C-428.56879268 589.2773995 -427.59388419 589.27818767 -426.58943302 589.27899972 C-421.69853624 589.28291488 -416.80763937 589.28670599 -411.91674244 589.29043543 C-371.35071182 589.32152859 -330.78473738 589.37518845 -290.21875 589.44140625 C-290.21875 572.94140625 -290.21875 556.44140625 -290.21875 539.44140625 C-294.3124147 539.43554001 -298.40607941 539.42967377 -302.62379456 539.42362976 C-340.15492505 539.3684656 -377.68600464 539.29851586 -415.21707735 539.21241997 C-420.13503373 539.20115167 -425.0529904 539.19001324 -429.97094727 539.17895508 C-430.95003274 539.17675139 -431.92911821 539.17454771 -432.93787294 539.17227725 C-448.79552511 539.1368953 -464.65317723 539.11203623 -480.51085425 539.09105923 C-496.77970821 539.06930434 -513.04851089 539.03625687 -529.31732124 538.99270469 C-539.3577708 538.96618263 -549.39815647 538.94849134 -559.43863934 538.94206021 C-566.32177802 538.93680803 -573.20483628 538.92059676 -580.08793188 538.89574059 C-584.06038601 538.88171978 -588.03269613 538.87255695 -592.00517654 538.87639809 C-595.64298098 538.87980897 -599.28047787 538.86943996 -602.91821932 538.84817073 C-604.85559834 538.84041092 -606.79301907 538.84734496 -608.73039919 538.85482329 C-614.97880559 538.80373054 -619.74887809 538.58551541 -625.21875 535.44140625 C-629.42875154 531.02543594 -631.60161064 525.89226904 -631.90625 519.81640625 C-631.57369531 514.34858846 -629.87491281 510.49955555 -626.21875 506.44140625 C-620.80350814 502.04152224 -616.25819629 501.31813969 -609.44254112 501.31112099 C-608.28143204 501.30749664 -607.12032296 501.30387229 -605.92402875 501.30013812 C-604.65273543 501.30120637 -603.38144212 501.30227462 -602.07162476 501.30337524 C-600.70413781 501.30095638 -599.33665158 501.29809386 -597.9691664 501.29482591 C-594.21233032 501.287079 -590.45551252 501.28545384 -586.69866943 501.28477478 C-582.64685003 501.28293403 -578.59504129 501.27532677 -574.54322815 501.26829529 C-567.5228018 501.25677326 -560.50237785 501.24852725 -553.48194504 501.24217606 C-542.39107427 501.23185198 -531.30023348 501.21129029 -520.2093811 501.1890564 C-516.41578493 501.18157699 -512.62218864 501.17416327 -508.8285923 501.16676903 C-507.406581 501.16399318 -507.406581 501.16399318 -505.95584219 501.16116125 C-495.16652791 501.14023744 -484.37721033 501.12140606 -473.58789062 501.10351562 C-472.10847205 501.10105835 -472.10847205 501.10105835 -470.59916623 501.09855144 C-454.60009602 501.07224078 -438.6010235 501.05361064 -422.6019408 501.03692372 C-406.18379059 501.01952272 -389.76568586 500.99070135 -373.34757197 500.95203435 C-363.21541272 500.92860009 -353.08332759 500.91463672 -342.95114101 500.91270672 C-336.01388742 500.91060252 -329.0767077 500.89771696 -322.13948725 500.87622739 C-318.13306053 500.86416236 -314.12678051 500.85707089 -310.12033653 500.86293983 C-306.45642497 500.86821118 -302.79281344 500.85984131 -299.1289521 500.84038346 C-297.16797191 500.83359852 -295.20695794 500.84166145 -293.24598444 500.85016119 C-292.09009085 500.84132135 -290.93419726 500.83248151 -289.7432766 500.82337379 C-288.74162669 500.82201727 -287.73997678 500.82066074 -286.70797384 500.8192631 C-283.79943371 500.37775527 -282.94353759 499.78155701 -281.21875 497.44140625 C-280.09367571 494.49957576 -280.09367571 494.49957576 -279.21875 491.19140625 C-277.87216327 486.41102337 -276.23571307 481.98081209 -274.21875 477.44140625 C-273.6560132 476.12956531 -273.09485968 474.81704426 -272.53515625 473.50390625 C-271.95082174 472.14960971 -271.36618393 470.795444 -270.78125 469.44140625 C-270.49443359 468.76851562 -270.20761719 468.095625 -269.91210938 467.40234375 C-268.44006262 464.00581717 -266.88612722 460.83962523 -264.93359375 457.69140625 C-262.93718868 454.71446706 -262.93718868 454.71446706 -263.61157227 452.23828125 C-263.91212524 451.34882812 -263.91212524 451.34882812 -264.21875 450.44140625 C-266.11576361 450.44335448 -266.11576361 450.44335448 -268.05110073 450.44534206 C-298.08688923 450.47462763 -328.12243365 450.46781454 -358.1581828 450.41668129 C-361.85683825 450.41041612 -365.55549414 450.40445492 -369.25415039 450.39868164 C-369.99047145 450.3975272 -370.7267925 450.39637276 -371.48542631 450.39518333 C-383.40043349 450.3772269 -395.31530582 450.38388303 -407.23031061 450.39967041 C-419.46056835 450.41532631 -431.69059604 450.40445043 -443.92081362 450.36905867 C-451.4647653 450.34806082 -459.00813747 450.34764032 -466.55207569 450.37372608 C-472.34147843 450.39152541 -478.13030894 450.3723706 -483.91962433 450.33956146 C-486.29113279 450.33187446 -488.66271481 450.33610491 -491.03417397 450.35321999 C-494.27695803 450.37482871 -497.51675007 450.35326302 -500.75938416 450.32115173 C-501.69423281 450.33765068 -502.62908147 450.35414962 -503.59225887 450.37114853 C-510.83340516 450.22752621 -515.1414855 447.53734096 -520.21875 442.44140625 C-522.80260639 438.12882689 -523.48433193 433.67039747 -522.890625 428.6875 C-521.22314039 422.18237109 -518.40284416 418.50579385 -512.74153233 414.83531761 C-507.8277648 412.89101457 -503.40523921 413.0347814 -498.16673279 413.07632446 C-497.05032427 413.07320547 -495.93391576 413.07008647 -494.78367668 413.06687295 C-491.04111436 413.05992627 -487.2989342 413.07426526 -483.55639648 413.08837891 C-480.87399204 413.08754818 -478.1916156 413.08550241 -475.50921631 413.08183289 C-469.73234952 413.07609101 -463.9555667 413.08070976 -458.17870903 413.09184647 C-449.82092868 413.10750662 -441.4632613 413.10193427 -433.10547925 413.09023003 C-419.53784797 413.07134198 -405.97023208 413.06211792 -392.40258789 413.0625 C-391.18498798 413.06252616 -391.18498798 413.06252616 -389.9427901 413.06255285 C-380.88344748 413.06300521 -371.82411039 413.06633617 -362.76477051 413.07342529 C-361.54257741 413.07437387 -361.54257741 413.07437387 -360.29569355 413.0753416 C-359.07470128 413.07629045 -359.07470128 413.07629045 -357.82904249 413.07725847 C-356.187542 413.07852824 -354.54604151 413.07979365 -352.90454102 413.08105469 C-351.68797136 413.08199697 -351.68797136 413.08199697 -350.44682454 413.0829583 C-336.92823507 413.0929084 -323.40973729 413.0835976 -309.89116722 413.05887067 C-301.55304988 413.04442798 -293.21525488 413.04652667 -284.87715603 413.06983267 C-279.16631331 413.08456565 -273.45565981 413.08144435 -267.7448247 413.06420375 C-264.44883657 413.05485403 -261.15348341 413.05648118 -257.85751534 413.07443428 C-254.28580063 413.09268916 -250.71545862 413.08044333 -247.14378357 413.06045532 C-246.10021161 413.07317494 -245.05663965 413.08589456 -243.9814443 413.09899962 C-238.09640847 413.04433839 -238.09640847 413.04433839 -233.14140415 410.01599693 C-232.50692828 409.16638201 -231.87245241 408.31676708 -231.21875 407.44140625 C-229.53125 405.62890625 -229.53125 405.62890625 -228.21875 404.44140625 C-227.55875 404.44140625 -226.89875 404.44140625 -226.21875 404.44140625 C-226.21875 403.45140625 -226.21875 402.46140625 -226.21875 401.44140625 C-224.25689584 399.73000156 -222.25572617 398.062673 -220.21875 396.44140625 C-219.88875 395.78140625 -219.55875 395.12140625 -219.21875 394.44140625 C-218.22875 394.44140625 -217.23875 394.44140625 -216.21875 394.44140625 C-215.8784375 393.60609375 -215.8784375 393.60609375 -215.53125 392.75390625 C-213.85723923 389.8044587 -211.66918651 387.76617935 -209.21875 385.44140625 C-207.65196905 383.8746253 -208.09258017 382.34637758 -208.09125805 380.16807365 C-208.0882504 379.24033288 -208.08524275 378.3125921 -208.08214396 377.35673797 C-208.08476952 375.8099447 -208.08476952 375.8099447 -208.08744812 374.23190308 C-208.08533241 373.14567913 -208.08321669 372.05945519 -208.08103687 370.94031537 C-208.07500527 367.26993342 -208.07603926 363.59958555 -208.0769043 359.92919922 C-208.07387486 357.30990032 -208.070354 354.69060195 -208.06637573 352.07130432 C-208.05825031 346.41497683 -208.05331455 340.75865387 -208.05008507 335.10232162 C-208.04459532 326.16138555 -208.02770405 317.22048779 -208.00874329 308.27957153 C-208.00238593 305.22228057 -207.99607755 302.1649895 -207.98976612 299.10769844 C-207.98818236 298.34354971 -207.9865986 297.57940097 -207.98496684 296.79209622 C-207.96701741 288.08666066 -207.95079816 279.38122237 -207.93579102 270.67578125 C-207.93441514 269.87968878 -207.93303927 269.08359631 -207.93162171 268.26337983 C-207.90970518 255.37068719 -207.89893934 242.47800435 -207.89142027 229.58529638 C-207.8833479 216.35387164 -207.86005167 203.12253108 -207.8234666 189.89115441 C-207.80144095 181.72771641 -207.79177713 173.56445153 -207.79796693 165.40098532 C-207.80151811 159.14191832 -207.78427239 152.88306656 -207.75928879 146.62405205 C-207.75235959 144.05658449 -207.7522689 141.48908808 -207.75948906 138.92162132 C-207.76834632 135.41834956 -207.75273243 131.91600744 -207.73100281 128.41281128 C-207.73944534 127.39500009 -207.74788788 126.37718891 -207.75658625 125.32853496 C-207.67445 118.17434089 -206.09776785 114.41719281 -201.90625 108.62890625 C-196.51052897 104.83191737 -189.47724872 104.71114346 -183.19140625 105.7890625 C-181.28125 106.25390625 -181.28125 106.25390625 -178.21875 107.44140625 C-177.88875 108.43140625 -177.55875 109.42140625 -177.21875 110.44140625 C-176.22875 110.77140625 -175.23875 111.10140625 -174.21875 111.44140625 C-170.4073566 115.92422137 -170.79058725 120.57207832 -170.82002258 126.15400696 C-170.81337576 127.13833165 -170.80672893 128.12265634 -170.79988068 129.13680905 C-170.78121484 132.43807194 -170.78385844 135.73897353 -170.78637695 139.0402832 C-170.77736201 141.40552789 -170.76703545 143.77076789 -170.75549316 146.13600159 C-170.7278658 152.56113269 -170.71863081 158.98617529 -170.71263909 165.41135812 C-170.70563997 171.44456344 -170.68209318 177.47771802 -170.66002061 183.51088276 C-170.61675181 195.45979312 -170.5867856 207.40869828 -170.56518555 219.35766602 C-170.54417613 230.96413735 -170.51690138 242.5705661 -170.48120117 254.17700195 C-170.47900235 254.89256727 -170.47680352 255.6081326 -170.47453807 256.34538171 C-170.46346842 259.93520597 -170.45227561 263.52502982 -170.44102156 267.1148535 C-170.34783515 296.89033321 -170.27645944 326.66583568 -170.21875 356.44140625 C-167.26419442 357.39526825 -167.26419442 357.39526825 -164.3515625 356.65625 C-163.68898438 356.23472656 -163.02640625 355.81320312 -162.34375 355.37890625 C-153.67076944 350.25717874 -144.1631119 346.73647247 -134.78125 343.12890625 C-133.8065979 342.74714233 -133.8065979 342.74714233 -132.81225586 342.35766602 C-128.61798022 340.77653554 -124.64946855 340.01745591 -120.21875 339.44140625 C-120.21739347 338.75252193 -120.21603694 338.06363762 -120.21463931 337.35387802 C-120.13399502 296.52799829 -120.04304279 255.70215287 -119.93869839 214.8763265 C-119.92617947 209.9746801 -119.9137467 205.07303348 -119.90136719 200.17138672 C-119.89890119 199.19555417 -119.8964352 198.21972162 -119.89389448 197.21431839 C-119.85416721 181.41230832 -119.82141972 165.61029109 -119.79125018 149.8082602 C-119.76013979 133.59478215 -119.72153214 117.38133446 -119.67595994 101.16789055 C-119.64807434 91.16277204 -119.62604159 81.15767575 -119.61148749 71.15252882 C-119.60094807 64.29229259 -119.58312842 57.43209937 -119.55958296 50.57189554 C-119.54621213 46.61352145 -119.53605212 42.65520766 -119.53453636 38.69680977 C-119.53307695 35.07073259 -119.52244745 31.44480058 -119.50461559 27.81876802 C-119.49749056 25.89008019 -119.50009822 23.96136393 -119.50308573 22.03266525 C-119.40827628 7.36453669 -119.40827628 7.36453669 -115.703125 2.41796875 C-110.20306827 -1.86811149 -105.49987612 -4.06224949 -98.30859375 -3.8828125 C-93.25021663 -3.09805493 -88.50414554 -0.47816752 -85.21875 3.44140625 C-81.20370952 9.34265792 -81.79300992 15.48681948 -81.82002258 22.34933472 C-81.81337576 23.66528157 -81.80672893 24.98122843 -81.79988068 26.33705246 C-81.78186192 29.9834581 -81.7824116 33.62966002 -81.78601015 37.27609968 C-81.78663403 41.21062477 -81.77001359 45.14508152 -81.75549316 49.07957458 C-81.7327007 55.89428081 -81.72082094 62.7089359 -81.71636391 69.52367783 C-81.70990402 79.37662293 -81.68696946 89.22947556 -81.66002061 99.08238341 C-81.6167445 115.06825562 -81.58678245 131.05412394 -81.56518555 147.04003906 C-81.54417833 162.56837883 -81.51690548 178.09668676 -81.48120117 193.625 C-81.47790293 195.06087386 -81.47790293 195.06087386 -81.47453807 196.52575527 C-81.46346848 201.32801858 -81.45227566 206.13028159 -81.44102156 210.93254447 C-81.34782478 250.76880553 -81.27705302 290.60507997 -81.21875 330.44140625 C-64.71875 330.44140625 -48.21875 330.44140625 -31.21875 330.44140625 C-31.23540459 324.45790794 -31.23540459 324.45790794 -31.25239563 318.35353088 C-31.3519 281.76993942 -31.4265396 245.18636485 -31.47407665 208.60266772 C-31.48033015 203.80745856 -31.48680176 199.01224971 -31.4934082 194.21704102 C-31.49471976 193.26240508 -31.49603131 192.30776915 -31.4973826 191.32420485 C-31.51913656 175.86877078 -31.55855805 160.41342974 -31.60451398 144.95805085 C-31.65127887 129.09828916 -31.67904547 113.23857617 -31.68919247 97.37874836 C-31.69605156 87.59308873 -31.71771185 77.80769206 -31.75833233 68.02211338 C-31.78477108 61.31090821 -31.79274843 54.59983891 -31.78625689 47.88858546 C-31.78305574 44.01700571 -31.78794742 40.14588533 -31.81477737 36.27438736 C-31.843678 32.07333681 -31.83367701 27.87326192 -31.82002258 23.6721344 C-31.83458679 22.45324652 -31.849151 21.23435864 -31.86415654 19.97853476 C-31.80061304 12.74920293 -30.88293562 7.16813854 -26.21875 1.44140625 C-18.03833893 -5.2563578 -8.92026039 -6.26616883 0 0 Z M-110.21875 374.44140625 C-111.02425293 374.68971191 -111.82975586 374.93801758 -112.65966797 375.19384766 C-115.08052494 375.94829445 -117.49474997 376.72009366 -119.90625 377.50390625 C-120.98374512 377.85340332 -120.98374512 377.85340332 -122.08300781 378.20996094 C-126.39291044 379.66543625 -130.3840453 381.44356824 -134.4230957 383.53344727 C-136.63488214 384.65182031 -138.91284314 385.53551427 -141.21875 386.44140625 C-150.49641177 390.77566743 -159.89741018 395.42847798 -168.21875 401.44140625 C-168.21875 402.10140625 -168.21875 402.76140625 -168.21875 403.44140625 C-168.96125 403.70953125 -169.70375 403.97765625 -170.46875 404.25390625 C-173.10936949 405.39417376 -175.07427844 406.53520931 -177.21875 408.44140625 C-177.21875 409.10140625 -177.21875 409.76140625 -177.21875 410.44140625 C-177.899375 410.64765625 -178.58 410.85390625 -179.28125 411.06640625 C-183.13514375 412.87035652 -186.29662764 415.34244075 -189.21875 418.44140625 C-189.21875 419.10140625 -189.21875 419.76140625 -189.21875 420.44140625 C-189.80140625 420.69921875 -190.3840625 420.95703125 -190.984375 421.22265625 C-193.3990403 422.53974642 -195.03615177 423.99229009 -196.96875 425.94140625 C-197.58234375 426.54984375 -198.1959375 427.15828125 -198.828125 427.78515625 C-200.43309088 429.33624902 -200.43309088 429.33624902 -200.21875 431.44140625 C-201.1159375 431.81265625 -201.1159375 431.81265625 -202.03125 432.19140625 C-204.53501919 433.6221315 -205.69947388 435.01056445 -207.21875 437.44140625 C-207.21875 438.10140625 -207.21875 438.76140625 -207.21875 439.44140625 C-207.87875 439.44140625 -208.53875 439.44140625 -209.21875 439.44140625 C-209.321875 440.08078125 -209.425 440.72015625 -209.53125 441.37890625 C-209.758125 442.05953125 -209.985 442.74015625 -210.21875 443.44140625 C-211.20875 443.77140625 -212.19875 444.10140625 -213.21875 444.44140625 C-216.19077012 448.07100701 -216.19077012 448.07100701 -217.21875 452.44140625 C-217.87875 452.44140625 -218.53875 452.44140625 -219.21875 452.44140625 C-220.59448989 454.23325601 -220.59448989 454.23325601 -221.93359375 456.5703125 C-222.45501953 457.44107422 -222.97644531 458.31183594 -223.51367188 459.20898438 C-224.05572266 460.13130859 -224.59777344 461.05363281 -225.15625 462.00390625 C-225.69443359 462.89916016 -226.23261719 463.79441406 -226.78710938 464.71679688 C-229.6474425 469.53104437 -232.11304177 474.25764805 -234.21875 479.44140625 C-235.32036821 481.69265509 -236.42465415 483.94259998 -237.53125 486.19140625 C-243.37609315 498.46588876 -247.11028474 511.52652911 -249.67578125 524.8515625 C-250.21875 527.44140625 -250.21875 527.44140625 -251.21875 529.44140625 C-253.94121545 548.65525649 -253.85193151 568.14367063 -252.34375 587.44140625 C-252.22628418 588.9737793 -252.22628418 588.9737793 -252.10644531 590.53710938 C-252.02233398 591.49552734 -251.93822266 592.45394531 -251.8515625 593.44140625 C-251.77824707 594.28703125 -251.70493164 595.13265625 -251.62939453 596.00390625 C-251.17558089 598.69764905 -250.27050183 600.92647907 -249.21875 603.44140625 C-248.87244515 604.75526198 -248.56070833 606.07885896 -248.2890625 607.41015625 C-248.13574463 608.13976563 -247.98242676 608.869375 -247.82446289 609.62109375 C-247.66582764 610.38679688 -247.50719238 611.1525 -247.34375 611.94140625 C-244.85432508 623.460093 -241.75287494 634.00269967 -236.21875 644.44140625 C-235.59764135 645.69076663 -234.98077186 646.94223966 -234.3671875 648.1953125 C-221.62136174 674.2145282 -203.76207734 699.78532257 -180.0234375 717.07421875 C-178.21875 718.44140625 -178.21875 718.44140625 -176.8203125 719.88671875 C-172.87231937 723.71916086 -167.81314102 726.45009411 -163.21875 729.44140625 C-162.26742187 730.06917969 -161.31609375 730.69695312 -160.3359375 731.34375 C-154.47202425 735.16114082 -148.5441999 738.45953447 -142.21875 741.44140625 C-141.00376999 742.02706115 -139.78893626 742.61301959 -138.57421875 743.19921875 C-131.91742976 746.38748353 -125.32965844 749.40467254 -118.21875 751.44140625 C-117.15140625 751.75722656 -116.0840625 752.07304688 -114.984375 752.3984375 C-111.4029744 753.44236104 -107.81967115 754.46756169 -104.21875 755.44140625 C-103.3630542 755.6835083 -102.5073584 755.92561035 -101.62573242 756.17504883 C-93.52302139 758.3597064 -85.50135133 759.36033376 -77.15625 760.12890625 C-75.87169922 760.25845703 -74.58714844 760.38800781 -73.26367188 760.52148438 C-60.5521733 761.74661096 -48.60501756 761.36436382 -35.90625 760.06640625 C-34.56187964 759.93847921 -33.21747868 759.81087337 -31.87304688 759.68359375 C-30.58849609 759.5546875 -29.30394531 759.42578125 -27.98046875 759.29296875 C-26.82506592 759.17775879 -25.66966309 759.06254883 -24.47924805 758.94384766 C-21.20562802 758.43938416 -18.32962174 757.55994068 -15.21875 756.44140625 C-13.62163608 756.07577127 -12.01713175 755.74060817 -10.40625 755.44140625 C-9.55417969 755.27640625 -8.70210937 755.11140625 -7.82421875 754.94140625 C-6.96441406 754.77640625 -6.10460938 754.61140625 -5.21875 754.44140625 C-3.55025881 754.11732905 -1.88342895 753.78452848 -0.21875 753.44140625 C0.503125 753.29703125 1.225 753.15265625 1.96875 753.00390625 C4.00781623 752.52533764 4.00781623 752.52533764 5.78125 750.44140625 C7.78304109 749.75786783 9.80843046 749.142485 11.84375 748.56640625 C26.28798598 744.24737402 39.27540473 736.77863643 51.78125 728.44140625 C52.61269531 727.88710937 53.44414063 727.3328125 54.30078125 726.76171875 C70.45034011 715.72406749 87.12399402 702.01935999 97.78125 685.44140625 C99.09391518 684.08772029 100.42692325 682.75341029 101.78125 681.44140625 C105.00579523 677.80079067 107.21614157 673.93144078 109.50390625 669.67578125 C110.78125 667.44140625 110.78125 667.44140625 113.15625 664.31640625 C116.96694038 659.16358593 119.3424996 653.10359253 121.95117188 647.28222656 C122.69716202 645.6278837 123.46444782 643.98318295 124.234375 642.33984375 C127.8791049 634.54539126 130.44086349 626.71077193 132.78125 618.44140625 C133.11125 617.49265625 133.44125 616.54390625 133.78125 615.56640625 C136.48701072 607.11090401 137.51281093 598.46475207 138.52246094 589.67089844 C138.78873337 587.37693629 139.06947666 585.08503576 139.3515625 582.79296875 C139.5370159 581.23834766 139.7219242 579.68366144 139.90625 578.12890625 C140.03773438 577.07328491 140.03773438 577.07328491 140.171875 575.99633789 C141.40947126 565.23598733 140.64275129 554.62860676 139.59375 543.87890625 C139.49829391 542.89419342 139.49829391 542.89419342 139.40090942 541.8895874 C138.31460913 530.95944886 136.14999665 520.87006748 132.78125 510.44140625 C132.08128072 507.78232932 131.43525436 505.11238202 130.78125 502.44140625 C129.1219476 496.55232142 126.80571534 491.21702241 123.96484375 485.80078125 C122.78125 483.44140625 122.78125 483.44140625 121.875 481.1328125 C114.56553969 463.1463191 102.67927578 444.9830724 88.78125 431.44140625 C87.83629225 430.32266316 86.89934278 429.19712652 85.96875 428.06640625 C82.58323929 424.08244668 78.76949697 420.80648963 74.78125 417.44140625 C73.8325 416.60480469 72.88375 415.76820313 71.90625 414.90625 C64.4768589 408.39799203 56.70403997 402.76886553 48.37890625 397.46044922 C47.04803791 396.61157323 45.72598836 395.7488908 44.40625 394.8828125 C36.51982697 389.7788976 28.05060449 386.03813614 19.34765625 382.5546875 C16.78125 381.44140625 16.78125 381.44140625 13.78125 379.44140625 C11.22383035 378.58989846 8.68359084 377.80438096 6.09375 377.06640625 C5.34786621 376.85016602 4.60198242 376.63392578 3.83349609 376.41113281 C-2.7464348 374.52640813 -9.37223008 372.85033178 -16.0234375 371.23828125 C-19.21875 370.44140625 -19.21875 370.44140625 -22.21875 369.44140625 C-51.18305732 365.05822271 -82.18240651 365.70761769 -110.21875 374.44140625 Z " fill="#000000" transform="translate(1055.21875,434.55859375)"/>
</svg>
